<svg width="143" height="43" viewBox="0 0 143 43" fill="none" xmlns="http://www.w3.org/2000/svg">
<g clip-path="url(#clip0_104_35221)">
<path d="M13.8246 43H11.3088C11.2089 42.9961 11.111 42.9706 11.022 42.9253C10.9331 42.8801 10.8552 42.8162 10.7938 42.7381C10.731 42.6625 10.6859 42.5741 10.6617 42.4792C10.6374 42.3844 10.6346 42.2854 10.6534 42.1894L18.8018 0.53953C18.8316 0.387555 18.914 0.250589 19.0348 0.15214C19.1556 0.0536912 19.3073 -9.96489e-05 19.4638 1.38587e-07L21.9796 0.0183337C22.0764 0.0182949 22.1721 0.0390246 22.2601 0.0790945C22.3481 0.119164 22.4262 0.177622 22.4891 0.250438C22.5521 0.323254 22.5983 0.408699 22.6246 0.500883C22.6509 0.593067 22.6567 0.689799 22.6416 0.784414L17.9544 24.0798C17.1983 27.681 17.2539 31.0465 18.1225 34.0703C18.9815 37.1833 20.8945 39.9106 23.542 41.7965C23.8068 41.9917 24.0941 42.175 24.3827 42.3505C24.3826 42.4202 24.3718 42.4895 24.351 42.5561C24.3055 42.6876 24.2189 42.8013 24.1036 42.8809C23.9884 42.9605 23.8506 43.0017 23.7101 42.9987H13.8246V43Z" fill="#005795"/>
<path d="M17.1654 0.261908C17.1025 0.186536 17.0236 0.125682 16.9344 0.0836066C16.8452 0.0415316 16.7478 0.0192538 16.649 0.0183337L14.1399 1.38587e-07C13.9833 -9.96489e-05 13.8317 0.0536912 13.7109 0.15214C13.5901 0.250589 13.5077 0.387555 13.4778 0.53953L5.33611 42.1894C5.31713 42.2859 5.32001 42.3853 5.34452 42.4805C5.36903 42.5758 5.41458 42.6645 5.47788 42.7402C5.54118 42.816 5.62067 42.8769 5.71063 42.9187C5.80058 42.9604 5.89878 42.9819 5.99814 42.9817L8.50594 43C8.66254 43.0004 8.81435 42.9467 8.93521 42.8482C9.05606 42.7497 9.13838 42.6126 9.16798 42.4605L17.3071 0.817152C17.3265 0.72 17.3238 0.619802 17.2993 0.523784C17.2748 0.427767 17.2291 0.338324 17.1654 0.261908Z" fill="#006AB4"/>
<path d="M11.8409 0.261908C11.7784 0.186432 11.6998 0.125486 11.6108 0.0833925C11.5218 0.0412988 11.4245 0.0190875 11.3259 0.0183337L8.81674 1.38587e-07C8.66021 -9.96489e-05 8.50852 0.0536912 8.38772 0.15214C8.26692 0.250589 8.18453 0.387555 8.1547 0.53953L0.0116439 42.1894C-0.00733035 42.2859 -0.00445747 42.3853 0.020056 42.4805C0.0445695 42.5758 0.0901146 42.6645 0.153417 42.7402C0.216719 42.816 0.296206 42.8769 0.386163 42.9187C0.47612 42.9604 0.574313 42.9819 0.673681 42.9817L3.18942 43C3.34595 43.0001 3.49764 42.9463 3.61844 42.8479C3.73924 42.7494 3.82163 42.6124 3.85146 42.4605L11.9892 0.817152C12.008 0.719524 12.0044 0.618973 11.9788 0.522888C11.9531 0.426803 11.906 0.337626 11.8409 0.261908Z" fill="#00A3E2"/>
<path d="M58.6566 1.18644C58.6843 1.04298 58.6796 0.895246 58.6429 0.75378C58.6062 0.612314 58.5384 0.480601 58.4443 0.368036C58.3502 0.25547 58.2321 0.164825 58.0986 0.102566C57.965 0.0403076 57.8192 0.00796905 57.6715 0.00785723H55.7238C55.4923 0.00859791 55.2681 0.0881599 55.0889 0.233163C54.9097 0.378166 54.7865 0.579765 54.74 0.804057L49.7323 25.3291C49.1696 28.1891 48.2216 30.7047 46.9174 32.8066C45.7036 34.8011 43.9735 36.4389 41.9057 37.551C39.8455 38.6497 37.241 39.2076 34.1652 39.2076C31.7011 39.2076 29.6633 38.8213 28.0996 38.0578C26.573 37.3114 25.3932 36.2794 24.5948 34.9922C23.7569 33.6157 23.2516 32.0664 23.1184 30.4651C22.9591 28.6239 23.0827 26.7695 23.4852 24.965L28.3154 1.18906C28.3449 1.04496 28.3415 0.896188 28.3057 0.753506C28.2699 0.610823 28.2025 0.477789 28.1084 0.364013C28.0142 0.250238 27.8957 0.158562 27.7614 0.0956105C27.6271 0.0326586 27.4803 1.95773e-06 27.3316 0L25.3296 0C25.0975 0.000317388 24.8726 0.0800255 24.693 0.225614C24.5135 0.371201 24.3904 0.573712 24.3445 0.798818L19.5779 24.5015C18.8788 27.829 18.9251 30.909 19.7103 33.6538C20.4657 36.3915 22.1483 38.7897 24.4769 40.4477C26.8219 42.1409 29.9838 42.9987 33.8779 42.9987C39.4575 42.9987 43.9514 41.4469 47.2312 38.3878C50.4738 35.3641 52.6599 31.1382 53.7191 25.828L58.6566 1.18644Z" fill="#1D1E1C"/>
<path d="M103.598 0.413701C103.504 0.299544 103.386 0.207524 103.251 0.144326C103.117 0.0811285 102.97 0.0483392 102.821 0.0483398H101.053C100.899 0.0495364 100.748 0.0855617 100.61 0.153657C100.472 0.221752 100.352 0.320111 100.259 0.441201L76.2084 31.6685L64.2334 0.688704C64.1598 0.500463 64.0304 0.338607 63.8622 0.224342C63.694 0.110076 63.4948 0.0487296 63.2907 0.0483398H61.6462C61.4139 0.0490808 61.189 0.129299 61.0097 0.275381C60.8303 0.421462 60.7077 0.624408 60.6624 0.849777L52.4161 41.8056C52.3863 41.95 52.3893 42.0992 52.4249 42.2423C52.4605 42.3855 52.5278 42.519 52.6219 42.6333C52.716 42.7475 52.8346 42.8397 52.9692 42.9031C53.1037 42.9665 53.2508 42.9996 53.3999 42.9999H55.3463C55.5785 42.9989 55.8033 42.9186 55.9826 42.7726C56.1618 42.6265 56.2846 42.4237 56.33 42.1985L63.1159 8.48831L74.0819 36.6853C74.1547 36.8727 74.283 37.0339 74.4501 37.148C74.6171 37.262 74.8151 37.3235 75.018 37.3244H76.019C76.173 37.3234 76.3247 37.2874 76.4624 37.2193C76.6002 37.1512 76.7203 37.0527 76.8135 36.9315L98.1787 9.30023L91.6458 41.8082C91.6164 41.9526 91.6197 42.1016 91.6556 42.2445C91.6915 42.3874 91.759 42.5206 91.8532 42.6346C91.9474 42.7486 92.0661 42.8405 92.2005 42.9036C92.335 42.9668 92.482 42.9997 92.6309 42.9999H94.5746C94.8069 42.9989 95.0316 42.9186 95.2109 42.7726C95.3902 42.6265 95.5129 42.4237 95.5584 42.1985L103.807 1.24133C103.836 1.09665 103.832 0.947455 103.796 0.80439C103.76 0.661325 103.692 0.527921 103.598 0.413701Z" fill="#1D1E1C"/>
<path d="M142.767 5.68471C141.264 3.90242 139.175 2.48943 136.558 1.48633C133.984 0.500244 131.008 0 127.712 0C123.74 0 120.128 0.690127 116.962 2.05074C113.796 3.41135 111.074 5.30625 108.869 7.68175C106.669 10.0494 104.948 12.8128 103.8 15.8218C102.622 18.9162 102.027 22.1972 102.043 25.5033C102.043 28.9081 102.813 31.9684 104.332 34.5993C105.862 37.2498 108.121 39.3398 111.046 40.8118C113.934 42.268 117.481 43.0052 121.587 43.0052C124.422 43.0248 127.235 42.5184 129.881 41.5124C132.324 40.593 134.58 39.2458 136.54 37.5353C136.703 37.3917 136.813 37.1995 136.855 36.9879L139.83 21.9793C139.859 21.8364 139.855 21.6891 139.82 21.5478C139.784 21.4065 139.717 21.2747 139.624 21.162C139.531 21.0494 139.413 20.9585 139.28 20.896C139.147 20.8336 139.002 20.801 138.854 20.8007H136.987C136.757 20.8018 136.535 20.8815 136.357 21.0263C136.179 21.1712 136.058 21.3723 136.013 21.5956L133.25 35.4296C131.857 36.4783 130.33 37.3413 128.709 37.9963C126.681 38.8134 124.364 39.2272 121.824 39.2272C118.303 39.2272 115.336 38.6301 112.999 37.4515C110.693 36.2925 108.941 34.67 107.78 32.6324C106.607 30.5712 106.012 28.1525 106.012 25.4404C105.995 22.5834 106.506 19.7473 107.522 17.0725C108.497 14.5199 109.964 12.1788 111.841 10.179C113.751 8.16863 116.062 6.57071 118.627 5.48566C121.275 4.34767 124.267 3.77147 127.536 3.77147C130.358 3.77147 132.833 4.16433 134.888 4.92517C136.9 5.67423 138.572 6.79127 139.855 8.24354C140.028 8.43852 140.271 8.55849 140.532 8.57748C140.668 8.58816 140.804 8.57035 140.932 8.52521C141.06 8.48006 141.177 8.40862 141.275 8.31557L142.676 7.04139C142.864 6.86989 142.978 6.63352 142.995 6.38108C143.012 6.12863 142.93 5.87936 142.767 5.68471Z" fill="#1D1E1C"/>
</g>
<defs>
<clipPath id="clip0_104_35221">
<rect width="143" height="43" fill="white"/>
</clipPath>
</defs>
</svg>
